<?xml version="1.0" encoding="UTF-8" standalone="yes"?>
<svg xmlns="http://www.w3.org/2000/svg" xmlns:xlink="http://www.w3.org/1999/xlink" width="31.942mm" height="26.971mm" version="1.1" viewBox="-546.355 1378.844 165.998 140.166">
  <!--
	Exported with Concepts: Smarter Sketching
	Version: 4569 on iOS 26.0
	https://concepts.app/
	-->
  <title>E50F1F9D-5E2F-49D1-904A-67492255CA7D</title>
  <desc>Drawing exported from Concepts: Smarter Sketching</desc>
  <defs></defs>
  <g id="Pen" opacity="1.000">
    <g id="Untitled" opacity="1.000">
      <path id="STROKE_8b08c6b9-a796-42b9-bfb9-86a71c1c6abc" opacity="0.996" fill="none" stroke="#171612" stroke-width="13.030" stroke-opacity="1.000" stroke-linecap="round" stroke-linejoin="round" d="M -538.124 1439.510 Q -537.002 1439.058 -530.786 1438.210 Q -524.569 1437.363 -518.023 1436.152 Q -511.476 1434.942 -507.686 1433.933 Q -503.897 1432.924 -499.537 1431.783 Q -495.177 1430.642 -492.154 1429.816 Q -489.131 1428.990 -482.620 1427.094 Q -476.109 1425.197 -470.440 1423.577 Q -464.772 1421.957 -461.591 1420.917 Q -458.411 1419.876 -452.495 1417.425 Q -446.579 1414.973 -442.316 1413.366 Q -438.054 1411.758 -430.491 1408.819 Q -422.928 1405.879 -416.674 1402.887 Q -410.419 1399.895 -407.281 1398.246 Q -404.144 1396.598 -399.228 1393.475 Q -394.313 1390.353 -388.592 1387.082 Q -388.768 1387.060 -390.558 1387.891 Q -392.348 1388.722 -404.111 1400.199 Q -415.874 1411.676 -421.928 1418.231 Q -427.982 1424.786 -430.638 1427.775 Q -433.294 1430.765 -434.995 1432.712 Q -436.696 1434.660 -442.327 1441.234 Q -447.958 1447.808 -452.171 1453.461 Q -456.384 1459.113 -459.464 1464.670 Q -462.544 1470.228 -464.841 1475.205 Q -467.138 1480.182 -468.398 1484.183 Q -469.659 1488.185 -470.130 1491.265 Q -470.602 1494.346 -470.615 1498.966 Q -470.629 1503.586 -468.183 1510.777 Q -468.152 1510.778 -467.659 1510.461 "></path>
      <path id="STROKE_66327769-2f4b-4599-bea1-008de996a439" opacity="0.996" fill="none" stroke="#171612" stroke-width="13.030" stroke-opacity="1.000" stroke-linecap="round" stroke-linejoin="round" d="M -442.371 1501.741 L -442.366 1501.728 "></path>
    </g>
    <g id="Untitled" opacity="1.000">
      <path id="STROKE_dde68b85-442b-404a-b0d1-6c8e0062339c" opacity="0.996" fill="none" stroke="#171612" stroke-width="13.030" stroke-opacity="1.000" stroke-linecap="round" stroke-linejoin="round" d="M -538.124 1439.510 Q -537.002 1439.058 -530.786 1438.210 Q -524.569 1437.363 -518.023 1436.152 Q -511.476 1434.942 -507.686 1433.933 Q -503.897 1432.924 -499.537 1431.783 Q -495.177 1430.642 -492.154 1429.816 Q -489.131 1428.990 -482.620 1427.094 Q -476.109 1425.197 -470.440 1423.577 Q -464.772 1421.957 -461.591 1420.917 Q -458.411 1419.876 -452.495 1417.425 Q -446.579 1414.973 -442.316 1413.366 Q -438.054 1411.758 -430.491 1408.819 Q -422.928 1405.879 -416.674 1402.887 Q -410.419 1399.895 -407.281 1398.246 Q -404.144 1396.598 -399.228 1393.475 Q -394.313 1390.353 -388.592 1387.082 Q -388.768 1387.060 -390.558 1387.891 Q -392.348 1388.722 -404.111 1400.199 Q -415.874 1411.676 -421.928 1418.231 Q -427.982 1424.786 -430.638 1427.775 Q -433.294 1430.765 -434.995 1432.712 Q -436.696 1434.660 -442.327 1441.234 Q -447.958 1447.808 -452.171 1453.461 Q -456.384 1459.113 -459.464 1464.670 Q -462.544 1470.228 -464.841 1475.205 Q -467.138 1480.182 -468.398 1484.183 Q -469.659 1488.185 -470.130 1491.265 Q -470.602 1494.346 -470.615 1498.966 Q -470.629 1503.586 -468.183 1510.777 Q -468.152 1510.778 -467.659 1510.461 "></path>
      <path id="STROKE_5e1205ef-e5f7-4001-88e8-333eac9dae18" opacity="0.996" fill="none" stroke="#171612" stroke-width="13.030" stroke-opacity="1.000" stroke-linecap="round" stroke-linejoin="round" d="M -442.371 1501.741 L -442.366 1501.728 "></path>
    </g>
  </g>
</svg>