<?xml version="1.0" encoding="UTF-8" standalone="yes"?>
<svg xmlns="http://www.w3.org/2000/svg" xmlns:xlink="http://www.w3.org/1999/xlink" width="24.087mm" height="28.639mm" version="1.1" viewBox="-531.494 1373.410 125.178 148.834">
  <!--
	Exported with Concepts: Smarter Sketching
	Version: 4569 on iOS 26.0
	https://concepts.app/
	-->
  <title>E50F1F9D-5E2F-49D1-904A-67492255CA7D</title>
  <desc>Drawing exported from Concepts: Smarter Sketching</desc>
  <defs></defs>
  <g id="Pen" opacity="1.000">
    <g id="Untitled" opacity="1.000">
      <path id="STROKE_8b08c6b9-a796-42b9-bfb9-86a71c1c6abc" opacity="0.996" fill="none" stroke="#171612" stroke-width="11.636" stroke-opacity="1.000" stroke-linecap="round" stroke-linejoin="round" d="M -477.777 1514.863 Q -478.177 1513.857 -478.910 1508.289 Q -479.643 1502.721 -480.700 1496.856 Q -481.756 1490.991 -482.643 1487.595 Q -483.531 1484.199 -484.534 1480.291 Q -485.538 1476.384 -486.265 1473.675 Q -486.991 1470.965 -488.662 1465.129 Q -490.333 1459.293 -491.760 1454.212 Q -493.187 1449.132 -494.105 1446.281 Q -495.023 1443.430 -497.193 1438.124 Q -499.363 1432.819 -500.785 1428.996 Q -502.206 1425.174 -504.806 1418.392 Q -507.407 1411.611 -510.059 1406.000 Q -512.711 1400.389 -514.174 1397.574 Q -515.637 1394.759 -518.412 1390.346 Q -521.186 1385.933 -524.091 1380.799 Q -524.112 1380.956 -523.375 1382.561 Q -522.638 1384.167 -512.413 1394.744 Q -502.188 1405.320 -496.346 1410.766 Q -490.503 1416.212 -487.838 1418.602 Q -485.173 1420.992 -483.437 1422.523 Q -481.701 1424.053 -475.839 1429.121 Q -469.978 1434.188 -464.936 1437.983 Q -459.893 1441.777 -454.931 1444.556 Q -449.970 1447.336 -445.524 1449.413 Q -441.078 1451.490 -437.502 1452.634 Q -433.925 1453.779 -431.170 1454.214 Q -428.414 1454.648 -424.279 1454.679 Q -420.143 1454.710 -413.697 1452.551 Q -413.696 1452.523 -413.978 1452.080 "></path>
      <path id="STROKE_66327769-2f4b-4599-bea1-008de996a439" opacity="0.996" fill="none" stroke="#171612" stroke-width="11.664" stroke-opacity="1.000" stroke-linecap="round" stroke-linejoin="round" d="M -421.678 1429.409 L -421.691 1429.404 "></path>
    </g>
    <g id="Untitled" opacity="1.000">
      <path id="STROKE_dde68b85-442b-404a-b0d1-6c8e0062339c" opacity="0.996" fill="none" stroke="#171612" stroke-width="11.636" stroke-opacity="1.000" stroke-linecap="round" stroke-linejoin="round" d="M -477.777 1514.863 Q -478.177 1513.857 -478.910 1508.289 Q -479.643 1502.721 -480.700 1496.856 Q -481.756 1490.991 -482.643 1487.595 Q -483.531 1484.199 -484.534 1480.291 Q -485.538 1476.384 -486.265 1473.675 Q -486.991 1470.965 -488.662 1465.129 Q -490.333 1459.293 -491.760 1454.212 Q -493.187 1449.132 -494.105 1446.281 Q -495.023 1443.430 -497.193 1438.124 Q -499.363 1432.819 -500.785 1428.996 Q -502.206 1425.174 -504.806 1418.392 Q -507.407 1411.611 -510.059 1406.000 Q -512.711 1400.389 -514.174 1397.574 Q -515.637 1394.759 -518.412 1390.346 Q -521.186 1385.933 -524.091 1380.799 Q -524.112 1380.956 -523.375 1382.561 Q -522.638 1384.167 -512.413 1394.744 Q -502.188 1405.320 -496.346 1410.766 Q -490.503 1416.212 -487.838 1418.602 Q -485.173 1420.992 -483.437 1422.523 Q -481.701 1424.053 -475.839 1429.121 Q -469.978 1434.188 -464.936 1437.983 Q -459.893 1441.777 -454.931 1444.556 Q -449.970 1447.336 -445.524 1449.413 Q -441.078 1451.490 -437.502 1452.634 Q -433.925 1453.779 -431.170 1454.214 Q -428.414 1454.648 -424.279 1454.679 Q -420.143 1454.710 -413.697 1452.551 Q -413.696 1452.523 -413.978 1452.080 "></path>
      <path id="STROKE_5e1205ef-e5f7-4001-88e8-333eac9dae18" opacity="0.996" fill="none" stroke="#171612" stroke-width="11.664" stroke-opacity="1.000" stroke-linecap="round" stroke-linejoin="round" d="M -421.678 1429.409 L -421.691 1429.404 "></path>
    </g>
  </g>
</svg>